<svg width="24" height="24" viewBox="0 0 24 24" fill="none" xmlns="http://www.w3.org/2000/svg">
<g clip-path="url(#clip0_349_1989)">
<path d="M6.85714 0C7.80536 0 8.57143 0.670312 8.57143 1.5V3H15.4286V1.5C15.4286 0.670312 16.1946 0 17.1429 0C18.0911 0 18.8571 0.670312 18.8571 1.5V3H21.4286C22.8482 3 24 4.00781 24 5.25V7.5H0V5.25C0 4.00781 1.15179 3 2.57143 3H5.14286V1.5C5.14286 0.670312 5.90893 0 6.85714 0ZM0 9H24V21.75C24 22.9922 22.8482 24 21.4286 24H2.57143C1.15179 24 0 22.9922 0 21.75V9ZM4.28571 12C3.81429 12 3.42857 12.3375 3.42857 12.75V17.25C3.42857 17.6625 3.81429 18 4.28571 18H9.42857C9.9 18 10.2857 17.6625 10.2857 17.25V12.75C10.2857 12.3375 9.9 12 9.42857 12H4.28571Z" fill="#11141A"/>
</g>
<defs>
<clipPath id="clip0_349_1989">
<rect width="24" height="24" fill="white"/>
</clipPath>
</defs>
</svg>
