<svg width="69" height="60" viewBox="0 0 69 60" fill="none" xmlns="http://www.w3.org/2000/svg">
<path d="M46.0999 5.70117C46.5866 5.70117 46.9815 6.09627 46.9817 6.58301C46.9817 7.06987 46.5867 7.46484 46.0999 7.46484C41.9875 7.46495 38.2968 10.2157 37.1252 14.1523C36.9965 14.5864 36.5619 14.848 36.1243 14.7686L36.1204 14.7734L36.0286 14.7461C35.5621 14.607 35.2957 14.1162 35.4348 13.6494C36.7985 9.06679 41.0458 5.70127 46.0999 5.70117Z" fill="url(#paint0_linear_326_4402)" stroke="#F9FFF9" stroke-width="0.3"/>
<path d="M56.3438 42.4384H51.9534C51.5494 42.4384 51.2217 42.1107 51.2217 41.7067C51.2217 41.3027 51.5494 40.9749 51.9534 40.9749H56.3438C62.3956 40.9749 67.3197 36.0509 67.3197 29.999C67.3197 23.9471 62.3956 19.023 56.3438 19.023H56.2382C56.026 19.023 55.8242 18.9311 55.6852 18.7706C55.5462 18.6101 55.4834 18.3974 55.5138 18.1873C55.5791 17.7315 55.612 17.2737 55.612 16.8279C55.612 11.5829 51.3444 7.31531 46.0995 7.31531C44.059 7.31531 42.1131 7.95296 40.4719 9.15978C40.1112 9.42478 39.599 9.30718 39.3905 8.91047C34.7425 0.0596993 22.6023 -1.12887 16.3082 6.57053C13.6568 9.81417 12.615 14.0336 13.4498 18.146C13.5418 18.6002 13.1942 19.0236 12.7327 19.0236H12.4395C6.3876 19.0236 1.46353 23.9477 1.46353 29.9996C1.46353 36.0514 6.3876 40.9755 12.4395 40.9755H16.8298C17.2338 40.9755 17.5615 41.3032 17.5615 41.7072C17.5615 42.1113 17.2338 42.439 16.8298 42.439H12.4395C5.5805 42.439 0 36.8585 0 29.9995C0 23.3329 5.27155 17.8742 11.8651 17.5731C11.2457 13.3066 12.4301 9.00295 15.1751 5.64437C21.9138 -2.5996 34.828 -1.67556 40.2871 7.51707C42.0287 6.42522 44.0215 5.85244 46.0992 5.85244C52.4538 5.85244 57.4892 11.261 57.0486 17.58C63.5813 17.9463 68.7829 23.3763 68.7829 29.999C68.7829 36.8585 63.2024 42.4384 56.3434 42.4384L56.3438 42.4384Z" fill="url(#paint1_linear_326_4402)"/>
<path d="M34.2939 22.8496C44.4637 22.8499 52.7373 31.1242 52.7373 41.2939C52.7371 51.4634 44.4635 59.7371 34.2939 59.7373C24.1243 59.7373 15.8499 51.4637 15.8496 41.2939C15.8496 31.1241 24.124 22.8496 34.2939 22.8496ZM34.2939 24.6143C25.0969 24.6143 17.6143 32.097 17.6143 41.2939C17.6145 50.4908 25.0972 57.9736 34.2939 57.9736C43.4905 57.9734 50.9734 50.4905 50.9736 41.2939C50.9736 32.0971 43.4906 24.6145 34.2939 24.6143Z" fill="url(#paint2_linear_326_4402)" stroke="#F9FFF9" stroke-width="0.3"/>
<path d="M34.6284 34.043C35.0069 34.0432 35.314 34.351 35.314 34.7295V48.6572C35.314 49.0362 35.0068 49.3435 34.6284 49.3438C34.2498 49.3438 33.9419 49.0359 33.9419 48.6572V34.7295C33.9419 34.3509 34.2498 34.043 34.6284 34.043Z" fill="url(#paint3_linear_326_4402)" stroke="url(#paint4_linear_326_4402)" stroke-width="0.3"/>
<path d="M34.1433 34.2454C34.4109 33.9776 34.8453 33.9776 35.113 34.2454L39.3982 38.5315C39.666 38.7994 39.666 39.2334 39.3982 39.5012L39.3972 39.5002C39.2634 39.6343 39.0884 39.7013 38.9138 39.7014C38.7387 39.7014 38.5622 39.6349 38.4285 39.5012L34.6277 35.6995L30.8269 39.5012C30.5593 39.7689 30.1249 39.7688 29.8572 39.5012C29.5894 39.2334 29.5895 38.7994 29.8572 38.5315L34.1433 34.2454Z" fill="url(#paint5_linear_326_4402)" stroke="url(#paint6_linear_326_4402)" stroke-width="0.3"/>
<defs>
<linearGradient id="paint0_linear_326_4402" x1="41.19" y1="5.85156" x2="41.19" y2="14.6328" gradientUnits="userSpaceOnUse">
<stop stop-color="#AF212C"/>
<stop offset="1" stop-color="#B2202B"/>
</linearGradient>
<linearGradient id="paint1_linear_326_4402" x1="34.3915" y1="0" x2="34.3915" y2="42.439" gradientUnits="userSpaceOnUse">
<stop stop-color="#AF212C"/>
<stop offset="1" stop-color="#B2202B"/>
</linearGradient>
<linearGradient id="paint2_linear_326_4402" x1="34.2935" y1="23" x2="34.2935" y2="59.587" gradientUnits="userSpaceOnUse">
<stop stop-color="#AF212C"/>
<stop offset="1" stop-color="#B2202B"/>
</linearGradient>
<linearGradient id="paint3_linear_326_4402" x1="34.628" y1="34.1934" x2="34.628" y2="49.1934" gradientUnits="userSpaceOnUse">
<stop stop-color="#AF212C"/>
<stop offset="1" stop-color="#B2202B"/>
</linearGradient>
<linearGradient id="paint4_linear_326_4402" x1="34.628" y1="34.1934" x2="34.628" y2="49.1934" gradientUnits="userSpaceOnUse">
<stop stop-color="#AF212C"/>
<stop offset="1" stop-color="#B2202B"/>
</linearGradient>
<linearGradient id="paint5_linear_326_4402" x1="34.6278" y1="34.1946" x2="34.6278" y2="39.5518" gradientUnits="userSpaceOnUse">
<stop stop-color="#AF212C"/>
<stop offset="1" stop-color="#B2202B"/>
</linearGradient>
<linearGradient id="paint6_linear_326_4402" x1="34.6278" y1="34.1946" x2="34.6278" y2="39.5518" gradientUnits="userSpaceOnUse">
<stop stop-color="#AF212C"/>
<stop offset="1" stop-color="#B2202B"/>
</linearGradient>
</defs>
</svg>
