<svg width="15" height="20" viewBox="0 0 15 20" fill="none" xmlns="http://www.w3.org/2000/svg">
<g clip-path="url(#clip0_238_7351)">
<path d="M8.42578 19.5C10.4297 16.9922 15 10.9141 15 7.5C15 3.35938 11.6406 0 7.5 0C3.35938 0 0 3.35938 0 7.5C0 10.9141 4.57031 16.9922 6.57422 19.5C7.05469 20.0977 7.94531 20.0977 8.42578 19.5ZM7.5 5C8.16304 5 8.79893 5.26339 9.26777 5.73223C9.73661 6.20107 10 6.83696 10 7.5C10 8.16304 9.73661 8.79893 9.26777 9.26777C8.79893 9.73661 8.16304 10 7.5 10C6.83696 10 6.20107 9.73661 5.73223 9.26777C5.26339 8.79893 5 8.16304 5 7.5C5 6.83696 5.26339 6.20107 5.73223 5.73223C6.20107 5.26339 6.83696 5 7.5 5Z" fill="url(#paint0_linear_238_7351)"/>
</g>
<defs>
<linearGradient id="paint0_linear_238_7351" x1="7.5" y1="0" x2="7.5" y2="19.9482" gradientUnits="userSpaceOnUse">
<stop stop-color="#AF212C"/>
<stop offset="1" stop-color="#B2202B"/>
</linearGradient>
<clipPath id="clip0_238_7351">
<rect width="15" height="20" fill="white"/>
</clipPath>
</defs>
</svg>
