<svg width="18" height="18" viewBox="0 0 18 18" fill="none" xmlns="http://www.w3.org/2000/svg">
<path d="M4.5 16.5C3.8625 16.5 3.32812 16.2844 2.89688 15.8531C2.46563 15.4219 2.25 14.8875 2.25 14.25V3.75C2.25 3.125 2.46563 2.59375 2.89688 2.15625C3.32812 1.71875 3.8625 1.5 4.5 1.5H11.25C11.6625 1.5 12.0156 1.64687 12.3094 1.94063C12.6031 2.23438 12.75 2.5875 12.75 3V12C12.75 12.4125 12.6031 12.7656 12.3094 13.0594C12.0156 13.3531 11.6625 13.5 11.25 13.5H4.5C4.2875 13.5 4.10938 13.5719 3.96563 13.7156C3.82188 13.8594 3.75 14.0375 3.75 14.25C3.75 14.4625 3.82188 14.6406 3.96563 14.7844C4.10938 14.9281 4.2875 15 4.5 15H14.25V3.75C14.25 3.5375 14.3219 3.35938 14.4656 3.21563C14.6094 3.07188 14.7875 3 15 3C15.2125 3 15.3906 3.07188 15.5344 3.21563C15.6781 3.35938 15.75 3.5375 15.75 3.75V15C15.75 15.4125 15.6031 15.7656 15.3094 16.0594C15.0156 16.3531 14.6625 16.5 14.25 16.5H4.5ZM6 12C6.2125 12 6.39062 11.9281 6.53438 11.7844C6.67813 11.6406 6.75 11.4625 6.75 11.25V3.75C6.75 3.5375 6.67813 3.35938 6.53438 3.21563C6.39062 3.07188 6.2125 3 6 3C5.7875 3 5.60938 3.07188 5.46563 3.21563C5.32188 3.35938 5.25 3.5375 5.25 3.75V11.25C5.25 11.4625 5.32188 11.6406 5.46563 11.7844C5.60938 11.9281 5.7875 12 6 12Z" fill="white"/>
</svg>
