<svg width="147" height="56" viewBox="0 0 147 56" fill="none" xmlns="http://www.w3.org/2000/svg">
<rect y="12" width="32" height="32" rx="4" fill="url(#paint0_linear_172_5554)"/>
<path d="M17.538 32.2419C16.4234 33.3565 14.606 33.3462 13.4788 32.2189M9.58615 26.9809C8.22654 29.5115 8.63054 32.7522 10.788 34.9097C13.4183 37.54 17.6588 37.564 20.2594 34.9634C22.3925 32.8302 22.7598 29.5938 21.3715 27.0477M15.9694 29.1266L19.8944 20.2037C20.0744 19.7946 19.6401 19.3794 19.2398 19.5779L15.7042 21.3306C15.5462 21.409 15.3568 21.393 15.212 21.2892L12.3272 19.2207C11.9424 18.9448 11.4381 19.3284 11.6034 19.7712L15.0832 29.0927C15.2339 29.4965 15.7972 29.5181 15.9694 29.1266Z" stroke="#E1E4ED" stroke-width="1.5" stroke-linecap="round"/>
<path d="M54.552 40V21.92H48.088V17.6H66.072V21.92H59.352V40H54.552ZM73.9215 40.32C72.0868 40.32 70.4762 39.9467 69.0895 39.2C67.7242 38.4533 66.6575 37.4293 65.8895 36.128C65.1428 34.8267 64.7695 33.344 64.7695 31.68C64.7695 30.3573 64.9828 29.152 65.4095 28.064C65.8362 26.9547 66.4335 26.0053 67.2015 25.216C67.9695 24.4267 68.8762 23.8187 69.9215 23.392C70.9882 22.944 72.1508 22.72 73.4095 22.72C74.5615 22.72 75.6175 22.9333 76.5775 23.36C77.5588 23.7653 78.4015 24.352 79.1055 25.12C79.8308 25.8667 80.3855 26.752 80.7695 27.776C81.1535 28.8 81.3348 29.92 81.3135 31.136L81.2815 32.544H67.6815L66.9455 29.728H77.5375L76.9935 30.304V29.632C76.9508 29.0347 76.7588 28.512 76.4175 28.064C76.0975 27.616 75.6815 27.264 75.1695 27.008C74.6575 26.7307 74.0922 26.592 73.4735 26.592C72.5135 26.592 71.7028 26.784 71.0415 27.168C70.4015 27.5307 69.9108 28.064 69.5695 28.768C69.2495 29.4507 69.0895 30.304 69.0895 31.328C69.0895 32.3307 69.3028 33.216 69.7295 33.984C70.1562 34.7307 70.7642 35.3067 71.5535 35.712C72.3642 36.1173 73.3135 36.32 74.4015 36.32C75.1482 36.32 75.8308 36.2027 76.4495 35.968C77.0682 35.7333 77.7402 35.328 78.4655 34.752L80.6095 37.792C80.0122 38.3253 79.3402 38.784 78.5935 39.168C77.8468 39.552 77.0788 39.84 76.2895 40.032C75.5002 40.224 74.7108 40.32 73.9215 40.32ZM84.3508 40V23.072H88.7348L88.8948 28.512L88.1268 27.36C88.4041 26.5067 88.8201 25.728 89.3748 25.024C89.9508 24.32 90.6228 23.7653 91.3908 23.36C92.1801 22.9333 93.0014 22.72 93.8548 22.72C94.2388 22.72 94.5908 22.752 94.9108 22.816C95.2521 22.8587 95.5401 22.9333 95.7748 23.04L94.5588 28C94.3241 27.8933 94.0148 27.7973 93.6308 27.712C93.2681 27.6053 92.8948 27.552 92.5108 27.552C92.0201 27.552 91.5508 27.648 91.1028 27.84C90.6761 28.0107 90.2921 28.2667 89.9508 28.608C89.6308 28.928 89.3748 29.312 89.1828 29.76C89.0121 30.208 88.9268 30.7093 88.9268 31.264V40H84.3508ZM106.719 40V29.408C106.719 28.512 106.442 27.8293 105.887 27.36C105.354 26.8693 104.629 26.624 103.711 26.624C102.837 26.624 102.058 26.7947 101.375 27.136C100.693 27.4773 100.053 28.0107 99.4553 28.736L96.6713 26.048C97.6953 24.9813 98.8366 24.16 100.095 23.584C101.375 23.008 102.762 22.72 104.255 22.72C105.621 22.72 106.805 22.9333 107.807 23.36C108.831 23.7867 109.621 24.4267 110.175 25.28C110.73 26.1333 111.007 27.2107 111.007 28.512V40H106.719ZM102.079 40.32C101.013 40.32 100.042 40.1067 99.1673 39.68C98.3139 39.2533 97.6313 38.6667 97.1193 37.92C96.6286 37.152 96.3833 36.256 96.3833 35.232C96.3833 34.3573 96.5433 33.5893 96.8633 32.928C97.1833 32.2453 97.6526 31.6907 98.2713 31.264C98.9113 30.816 99.7006 30.4747 100.639 30.24C101.599 30.0053 102.709 29.888 103.967 29.888H108.959L108.671 32.928H103.903C103.391 32.928 102.933 32.9707 102.527 33.056C102.143 33.1413 101.813 33.28 101.535 33.472C101.279 33.664 101.077 33.888 100.927 34.144C100.799 34.4 100.735 34.6987 100.735 35.04C100.735 35.4027 100.831 35.7227 101.023 36C101.215 36.2773 101.471 36.4907 101.791 36.64C102.133 36.7893 102.517 36.864 102.943 36.864C103.562 36.864 104.149 36.7573 104.703 36.544C105.279 36.3307 105.791 36.032 106.239 35.648C106.687 35.264 107.039 34.8267 107.295 34.336L108.159 36.608C107.711 37.3333 107.167 37.9733 106.527 38.528C105.887 39.0827 105.194 39.52 104.447 39.84C103.701 40.16 102.911 40.32 102.079 40.32ZM114.805 40V16.32H119.349V40H114.805ZM123.994 40V23.072H128.538V40H123.994ZM126.234 19.584C125.359 19.584 124.676 19.3707 124.186 18.944C123.695 18.5173 123.45 17.9093 123.45 17.12C123.45 16.3947 123.695 15.808 124.186 15.36C124.698 14.8907 125.391 14.656 126.266 14.656C127.119 14.656 127.791 14.88 128.282 15.328C128.772 15.7547 129.018 16.352 129.018 17.12C129.018 17.8667 128.772 18.464 128.282 18.912C127.791 19.36 127.108 19.584 126.234 19.584ZM138.798 40.32C137.241 40.32 135.843 40.064 134.606 39.552C133.39 39.04 132.398 38.3147 131.63 37.376L134.478 34.944C135.139 35.648 135.865 36.16 136.654 36.48C137.465 36.7787 138.286 36.928 139.118 36.928C139.417 36.928 139.694 36.896 139.95 36.832C140.206 36.7467 140.43 36.64 140.622 36.512C140.814 36.3627 140.953 36.192 141.038 36C141.145 35.808 141.198 35.584 141.198 35.328C141.198 34.8587 141.006 34.496 140.622 34.24C140.451 34.112 140.131 33.9733 139.662 33.824C139.214 33.6533 138.638 33.472 137.934 33.28C136.846 33.0027 135.929 32.6827 135.182 32.32C134.435 31.936 133.827 31.4987 133.358 31.008C132.974 30.6027 132.675 30.1333 132.462 29.6C132.27 29.0667 132.174 28.48 132.174 27.84C132.174 26.816 132.473 25.92 133.07 25.152C133.667 24.384 134.457 23.7867 135.438 23.36C136.441 22.9333 137.529 22.72 138.702 22.72C139.577 22.72 140.419 22.8267 141.23 23.04C142.062 23.2533 142.83 23.5627 143.534 23.968C144.259 24.352 144.889 24.8107 145.422 25.344L142.99 28.064C142.606 27.68 142.169 27.3493 141.678 27.072C141.187 26.7733 140.697 26.5387 140.206 26.368C139.715 26.176 139.267 26.08 138.862 26.08C138.499 26.08 138.169 26.112 137.87 26.176C137.593 26.24 137.358 26.3467 137.166 26.496C136.974 26.624 136.825 26.784 136.718 26.976C136.633 27.168 136.59 27.3813 136.59 27.616C136.59 27.8507 136.643 28.0747 136.75 28.288C136.878 28.48 137.049 28.6613 137.262 28.832C137.475 28.96 137.817 29.1093 138.286 29.28C138.777 29.4507 139.406 29.6427 140.174 29.856C141.198 30.1333 142.062 30.4427 142.766 30.784C143.47 31.1253 144.035 31.52 144.462 31.968C144.846 32.352 145.113 32.8 145.262 33.312C145.433 33.8027 145.518 34.336 145.518 34.912C145.518 35.9573 145.219 36.896 144.622 37.728C144.046 38.5387 143.246 39.1787 142.222 39.648C141.219 40.096 140.078 40.32 138.798 40.32Z" fill="white"/>
<defs>
<linearGradient id="paint0_linear_172_5554" x1="16" y1="12" x2="16" y2="44" gradientUnits="userSpaceOnUse">
<stop stop-color="#AF212C"/>
<stop offset="1" stop-color="#B2202B"/>
</linearGradient>
</defs>
</svg>
